<?xml version="1.0" encoding="UTF-8"?>
<svg version="1.1" viewBox="0 0 1200 1200" width="300" height="300" xmlns="http://www.w3.org/2000/svg">
<path transform="translate(0)" d="m0 0h1200v1200h-1200z" fill="#FDFDFD"/>
<path transform="translate(547,214)" d="m0 0h225l1 38v26l13 1 68 12 140 25v120l-2 9-5 4h-12l-9-3-14-9v3l10 37 12 41 7 23v2l13 2 7 1h20l9-1 2 2 4 11v9l-8 30-20 71-20 72-3 14 2 22-10 5-30 10-41 14-36 12-24 7-9 2-13-1-19-4 2 29 5 53 5 58v18l-4 7-3 2-13 1-104 2-35 1-66 1h-80l-28-2-89-7-4-8-6-17-11-29-48-128-4-10-9-7-16-10-10-7-24-16-43-29-45-30-14-9-5-4v-10l3-31 7-77 5-56 1-11 8-18 10-19 85-170 1-3 5 1 15 8 23 11 24 12 23 11 16 8 3 2 4-1 15-12 27-21 17-13 36-28 15-12 16-12 16-13 11-8z" fill="#0E0D0D"/>
<path transform="translate(351,481)" d="m0 0 11 7 14 10 18 12 17 12 19 13 12 8 10 7 33 22 22 14 11 8 5 6 10 25 9 25 13 34 22 55 3 9 17 3 50 12 47 11 27 7 50 12 57 13h2l19-43 16-37 8-18 7-16 11-25 17-39 8-7 17-4 5 1 9 40 18 66 8 29 3 11-1 5-20 6-54 18-40 14-16 6-4 1h-10l-32-6-49-12-46-11-37-9-57-14-18-4h-6l-4 5-15 9-28 15-23 13-52 28-44 24-14 9h-2l-6-14-17-43-9-23-10-25-8-15-4-13-6-31-15-87-12-64-7-30-1-2 3-5 30-20 7-5z" fill="#FDFDFD"/>
<path transform="translate(758,255)" d="m0 0 3 1-4 41-6 63-6 65-4 44-1 19-1 3-21 10-30 13-28 12-39 17-20 9-26 11-29 13-19 9-4-1-4-8-14-34-11-25-13-30-12-28-10-24-12-28-7-17 1-4 25-10 37-16 28-12 62-26 21-9 31-13 32-13 26-11 20-8 27-10z" fill="#FDFDFD"/>
<path transform="translate(228,642)" d="m0 0h3l-1 5-11 23-7 12-4 8v5l8 4 16 11 54 36 17 11 21 13 9 7 3 3 6 18 5 17 11 30 12 31 17 45 9 25v2l16-5 32-8 27-6 36-9 25-6 14-5 12-11 10-8 12-10 13-10 10-8 28-22 18-14 28-22 5-2h11l92 18 5 3 3 15 10 82 5 47v9l-3 1-142 8-75 3h-20l-44-3-101-10-22-2-3-5-7-20-10-26-20-51-16-41-12-36-3-11-14-10-26-17-72-48-13-10-26-17-12-7v-2l19-9 15-7 15-8z" fill="#FDFDFD"/>
<path transform="translate(910,370)" d="m0 0 5 1 15 44 14 45 20 61 12 36 6 20v4l-26 7-25 7-21 6-5 1-9-5-14-11-13-11-12-11-11-9-10-10-8-7-16-15-7-7-8-7-15-14-5-7 1-7 1-4 2-91 8-2 67-8 36-4z" fill="#FDFDFD"/>
<path transform="translate(275,312)" d="m0 0h1l1 12 12 26 28 56 11 21 11 23 10 22 1 7-24 16-11 8-7 6-2 5-16-8-17-9-21-13-23-15-12-8-9-7 1-6 8-17 7-14 8-18 7-14 9-20 16-32z" fill="#FDFDFD"/>
<path transform="translate(205,456)" d="m0 0h2l4 42 12 97 4 32 1 5v8l-36 16-16 8-9 5 1-13 6-49 7-63 5-46 4-11 8-16z" fill="#FDFDFD"/>
<path transform="translate(557,225)" d="m0 0 201 1-1 5-60 1h-137l-6 3-13 11-14 11-17 13-36 28-14 11-13 10-19 14-30 23-2 4 5 2 21 9 3 3-1 5-6-2-28-13-16-8-39-20-19-10-16-8-20-8v-3l4-4 10 4 16 8 23 12 15 8 16 8 25 12 5-5 12-10 19-14 13-10 12-9 21-16 14-11 26-20 18-13 14-11 11-9z" fill="#FDFDFD"/>
<path transform="translate(782,294)" d="m0 0 28 4 85 15 79 14 8 1 1 1v112l-1 1h-5l-1-107-56-10-61-11-76-13-3-1 1-5z" fill="#FDFDFD"/>
<path transform="translate(1022,554)" d="m0 0h3v11l-5 29-13 46-9 32-7 24-9 32-5 15-2-1v-10l5-23 8-30 26-91 3-14 1-7h-4l-1-6 5-5z" fill="#FDFDFD"/>
</svg>
